<svg id="Layer_1" data-name="Layer 1" xmlns="http://www.w3.org/2000/svg" viewBox="0 0 1080 1080"><defs><style>.cls-1{fill:#fafcfd;}.cls-2{fill:#191e25;}</style></defs><rect class="cls-1" x="-39.74" y="-21.9" width="1237.79" height="1123.81"/><path class="cls-2" d="M374,499.5v.56H354.4L303.51,606H303l-50.49-106H237.64v-.56h63.51v.56H278.66l36,80.59,38.79-80.59H328.36v-.56Z"/><path class="cls-2" d="M444.36,606a70.7,70.7,0,0,1-30.42-6.37,52,52,0,0,1-21.55-18.3q-8-11.93-8-28.56t7.79-28.56A50.72,50.72,0,0,1,413.36,506a69.4,69.4,0,0,1,30.23-6.38q19,0,30.75,6.6t17,17.25a50,50,0,0,1,5.34,22.73H401.65v-.66h67.8a106.73,106.73,0,0,0-.77-14.2,63.45,63.45,0,0,0-3.54-14.86,28.55,28.55,0,0,0-7.85-11.7q-5.21-4.61-13.7-4.6-9.52,0-15.76,4.6A31.57,31.57,0,0,0,418,517a62.5,62.5,0,0,0-5.08,17,120.53,120.53,0,0,0,0,37.66,57,57,0,0,0,5.27,16.91,31.54,31.54,0,0,0,10.55,12.14q6.75,4.61,17.31,4.61,19.93,0,32.74-9.71t17.56-23.34H497a50.19,50.19,0,0,1-18.07,24.12Q465.85,606,444.36,606Z"/><path class="cls-2" d="M556,499.56V605.28h16.08v.58H515.63v-.58H532V500.14H515.63v-.58Zm-.67,56.88a146.88,146.88,0,0,1,1.47-21A65.81,65.81,0,0,1,562.07,517a31.75,31.75,0,0,1,10.73-13q6.9-4.8,17.35-4.8a29.75,29.75,0,0,1,12.94,2.6,20.84,20.84,0,0,1,8.37,6.87,16.16,16.16,0,0,1,2.95,9.36,13.43,13.43,0,0,1-4.09,9.94q-4.08,4.05-11.46,4-7.64,0-11.86-3.58a11.09,11.09,0,0,1-4.22-8.78q0-6.81,5.09-10.28A19,19,0,0,1,598.73,506a18.37,18.37,0,0,1,8,1.68,14.32,14.32,0,0,1,5.57,4.39,9.94,9.94,0,0,1,2,6.06h-.54a15.45,15.45,0,0,0-2.88-9.07,20.74,20.74,0,0,0-8.11-6.64,28.62,28.62,0,0,0-12.6-2.54q-10.46,0-17.15,4.85a32.45,32.45,0,0,0-10.46,13,64.92,64.92,0,0,0-5.16,18.25,150,150,0,0,0-1.4,20.51Z"/><path class="cls-2" d="M624.29,500.43v-.57h71.48v.57Zm43.42,106q-10.86,0-16-4.11A18.62,18.62,0,0,1,645.14,592a52.65,52.65,0,0,1-1.52-12.5V477a43.33,43.33,0,0,0,12.9-2.17,46.28,46.28,0,0,0,10.92-4.68v118.1q0,8.55,2.39,11.47t7.67,2.9q7.54,0,14.63-6.38a47.3,47.3,0,0,0,11-14.61h.66a42.38,42.38,0,0,1-14.36,17.86A36.36,36.36,0,0,1,667.71,606.43Z"/><path class="cls-2" d="M780.59,606.1a70.57,70.57,0,0,1-30.4-6.37,51.77,51.77,0,0,1-21.53-18.28q-8-11.91-8-28.53t7.78-28.54a50.75,50.75,0,0,1,21.14-18.28q13.36-6.37,30.21-6.37,19,0,30.72,6.59t17,17.23a50.08,50.08,0,0,1,5.33,22.72h-95v-.67h67.74a104.78,104.78,0,0,0-.77-14.18,63.85,63.85,0,0,0-3.53-14.85,28.66,28.66,0,0,0-7.84-11.69q-5.21-4.59-13.69-4.6-9.52,0-15.75,4.6a31.59,31.59,0,0,0-9.83,12.25,62.33,62.33,0,0,0-5.08,17,120.27,120.27,0,0,0,0,37.62,57.07,57.07,0,0,0,5.27,16.9A31.56,31.56,0,0,0,765,600.73q6.75,4.6,17.29,4.6,19.92,0,32.71-9.7t17.55-23.32h.64a50.12,50.12,0,0,1-18.06,24.1Q802.05,606.1,780.59,606.1Zm5.78-125.54-35.22-13.74a7.17,7.17,0,0,1-3.27-2.77,7.36,7.36,0,0,1-1.23-4.1,7.15,7.15,0,0,1,1.16-4,9.23,9.23,0,0,1,3.73-3,10.54,10.54,0,0,1,5.4-.94,7.82,7.82,0,0,1,5.27,2.77l24.55,25.49Z"/></svg>